<?xml version="1.0" standalone="no"?>
<!DOCTYPE svg PUBLIC "-//W3C//DTD SVG 20010904//EN"
 "http://www.w3.org/TR/2001/REC-SVG-20010904/DTD/svg10.dtd">
<svg version="1.0" xmlns="http://www.w3.org/2000/svg"
 width="525.000000pt" height="475.000000pt" viewBox="0 0 525.000000 475.000000"
 preserveAspectRatio="xMidYMid meet">

<g transform="translate(0.000000,475.000000) scale(0.100000,-0.100000)"
fill="#000000" stroke="none">
<path d="M2303 4676 c-218 -41 -407 -221 -463 -441 -11 -43 -20 -109 -20 -147
0 -94 46 -232 116 -346 69 -113 118 -213 107 -222 -4 -4 -26 -13 -48 -20 -68
-22 -236 -110 -326 -172 -250 -170 -462 -450 -559 -738 -18 -52 -34 -96 -35
-98 -2 -2 -25 12 -52 32 -136 97 -385 166 -605 166 -104 0 -101 8 -64 -146 50
-205 125 -370 221 -487 48 -58 53 -68 38 -74 -67 -23 -196 -91 -252 -132 -109
-81 -331 -321 -331 -358 0 -17 175 -92 287 -123 146 -41 289 -56 394 -41 144
22 303 86 401 163 l37 29 41 -83 c23 -46 64 -116 91 -157 27 -41 49 -78 49
-82 0 -17 -20 -18 -49 -2 -30 17 -32 17 -62 1 -27 -16 -33 -16 -52 -3 -30 21
-51 19 -85 -10 -17 -15 -42 -25 -60 -25 -18 0 -32 -6 -36 -16 -9 -24 -7 -957
2 -972 7 -10 135 -12 608 -10 l599 3 5 58 5 58 34 -35 c19 -20 39 -36 45 -36
6 0 25 14 43 32 l32 31 59 -26 c33 -15 65 -27 71 -27 7 0 11 -21 11 -55 l0
-55 119 0 120 0 3 51 3 52 53 20 54 20 34 -37 34 -37 34 26 35 26 3 -28 3 -28
693 -3 692 -2 0 515 0 515 -345 2 -344 3 45 65 c25 36 74 122 108 192 61 124
63 127 81 108 62 -69 256 -174 423 -229 118 -38 158 -46 167 -32 13 21 6 277
-10 376 -18 113 -54 227 -96 304 -16 30 -28 55 -26 57 1 1 43 9 94 18 138 24
248 70 403 172 94 61 200 148 200 164 0 14 -142 117 -230 167 -185 106 -310
143 -480 143 -148 0 -244 -20 -358 -76 -52 -25 -95 -44 -96 -42 -2 1 -13 30
-26 63 -117 301 -361 582 -646 745 -95 54 -237 113 -339 139 -43 12 -83 25
-87 29 -4 4 16 46 44 92 127 211 148 269 148 415 0 164 -56 308 -165 423 -141
150 -341 216 -542 178z m228 -41 c154 -33 299 -142 370 -280 54 -103 69 -167
69 -287 0 -127 -23 -198 -104 -326 -92 -147 -132 -243 -162 -399 -4 -22 -9
-23 -98 -23 l-93 0 13 83 c7 46 32 173 55 283 49 232 49 237 27 242 -12 2 -20
-7 -27 -35 -14 -52 -97 -467 -105 -525 l-7 -48 -54 0 -54 0 -7 48 c-21 151
-117 554 -132 560 -29 11 -29 -19 4 -158 30 -126 94 -430 94 -445 0 -3 -42 -5
-93 -5 l-93 0 -17 91 c-21 111 -56 202 -112 288 -95 147 -145 282 -145 388 0
261 191 497 445 549 83 17 142 17 226 -1z m433 -1157 c483 -161 846 -565 959
-1068 29 -130 31 -451 4 -580 -38 -181 -118 -379 -209 -514 -75 -111 -64 -106
-206 -106 l-125 0 39 43 c181 197 290 427 325 687 14 105 6 352 -15 436 -96
389 -330 686 -682 862 -55 28 -209 81 -276 96 -16 4 -28 11 -28 18 0 12 40
149 47 161 7 11 64 -1 167 -35z m-884 -124 c0 -23 -5 -33 -20 -37 -12 -3 -20
-14 -20 -25 0 -16 -22 -31 -94 -67 -235 -118 -435 -321 -551 -560 -102 -210
-128 -325 -128 -565 0 -163 2 -183 30 -290 63 -241 158 -408 339 -597 l41 -43
-117 0 c-104 0 -119 2 -135 20 -10 11 -24 20 -31 20 -7 0 -33 28 -57 63 -299
420 -348 975 -129 1449 149 323 462 614 787 733 l60 22 12 -46 c7 -25 13 -60
13 -77z m872 -118 c160 -62 260 -128 401 -265 181 -174 288 -370 344 -624 24
-114 24 -360 -1 -475 -51 -239 -161 -447 -324 -615 l-56 -57 -138 0 -138 0
-19 38 c-28 55 -46 68 -76 54 -28 -13 -31 -28 -13 -67 10 -22 8 -29 -16 -54
l-27 -29 -37 19 c-20 11 -54 26 -74 34 -36 13 -38 16 -38 59 l0 46 -90 0 -90
0 0 349 0 350 29 20 c35 25 55 79 47 124 -5 28 12 59 149 276 85 135 155 250
155 255 0 13 -64 56 -83 56 -7 0 -81 -110 -165 -245 -116 -185 -158 -245 -173
-245 -33 0 -94 -37 -107 -64 l-12 -26 -238 0 c-131 0 -287 -3 -345 -7 -104 -6
-107 -7 -107 -30 l0 -23 344 0 c333 0 345 -1 351 -20 3 -10 19 -30 36 -44 l29
-25 0 -349 c0 -297 2 -351 15 -362 13 -11 12 -15 -5 -37 -11 -14 -20 -34 -20
-44 0 -12 -13 -24 -37 -34 l-36 -15 -29 35 c-16 19 -33 35 -36 35 -4 0 -32
-22 -62 -50 -43 -39 -56 -46 -63 -35 -4 8 -21 15 -37 15 -18 0 -39 10 -54 25
-29 29 -62 32 -94 9 -30 -21 -28 -10 9 47 25 40 28 51 19 68 -6 13 -21 21 -35
21 -20 0 -34 -14 -69 -69 -51 -79 -59 -86 -76 -66 -18 22 -67 18 -91 -6 l-21
-21 -46 40 c-83 69 -209 236 -271 360 -36 72 -87 217 -102 294 -18 93 -27 270
-17 373 29 327 206 639 478 844 72 54 226 141 249 141 7 0 11 -20 11 -49 0
-27 5 -51 11 -53 6 -2 9 -21 7 -43 l-3 -39 -24 47 c-30 57 -44 71 -70 62 -34
-11 -32 -35 11 -118 54 -101 71 -113 104 -72 l24 30 0 -58 0 -57 308 2 307 3
3 53 c2 37 7 52 18 52 11 0 14 15 14 69 0 52 4 70 15 75 12 4 15 23 15 82 l0
77 38 -6 c20 -4 76 -22 124 -41z m-68 -565 c3 -4 -27 -60 -67 -122 -240 -377
-238 -373 -227 -406 15 -42 -2 -81 -42 -97 -36 -16 -53 -12 -85 17 -25 23 -30
72 -10 98 18 24 56 41 77 34 23 -7 31 3 201 273 74 116 137 212 141 212 4 0 9
-4 12 -9z m-2226 -46 c112 -23 219 -62 300 -107 107 -62 106 -58 87 -163 -8
-48 -15 -116 -15 -151 0 -35 -4 -64 -10 -64 -5 0 -11 52 -12 123 -3 114 -4
122 -23 122 -18 0 -20 -8 -25 -97 l-5 -97 -65 55 -65 55 0 82 c0 75 -2 82 -20
82 -17 0 -21 -8 -25 -62 l-5 -62 -62 52 -61 52 -4 85 c-2 71 -6 85 -20 88 -16
3 -18 -5 -18 -62 0 -36 -3 -66 -6 -66 -3 0 -37 27 -77 60 -39 33 -76 59 -82
57 -30 -10 -9 -40 80 -113 105 -86 104 -83 13 -98 -38 -7 -58 -33 -32 -43 8
-3 49 0 90 6 68 12 76 11 99 -7 38 -30 95 -81 95 -85 0 -2 -25 -9 -55 -16 -58
-13 -74 -26 -56 -44 8 -8 31 -7 87 5 l75 15 69 -55 c38 -31 68 -58 66 -60 -2
-1 -46 -11 -97 -20 -69 -13 -95 -22 -97 -33 -5 -26 17 -28 127 -8 58 10 108
16 113 13 4 -3 8 -15 8 -27 0 -22 -2 -22 -129 -19 -71 2 -150 0 -175 -6 l-46
-10 -55 59 c-111 120 -183 282 -249 563 l-7 29 108 -6 c59 -3 141 -13 181 -22z
m3472 -551 c47 -12 111 -23 142 -23 l58 -1 30 -52 c81 -142 120 -311 120 -520
0 -111 -2 -128 -16 -128 -30 0 -222 68 -296 106 -76 38 -159 93 -215 141 l-33
28 16 55 c9 30 20 60 24 65 5 6 18 48 29 94 12 47 22 86 24 87 2 2 27 -28 56
-67 l54 -70 -21 -71 c-22 -74 -20 -101 6 -96 10 2 21 24 31 62 l14 60 24 -30
c12 -16 36 -47 52 -69 l28 -40 -19 -79 c-13 -53 -16 -82 -9 -89 17 -17 37 9
50 69 l13 56 56 -76 c34 -46 63 -76 74 -76 31 0 21 23 -52 120 -38 51 -70 97
-70 101 0 4 26 5 59 2 60 -6 76 2 65 31 -4 12 -25 16 -87 18 l-82 3 -48 65
-49 65 64 5 c47 4 63 9 63 20 0 16 -52 28 -130 30 -37 1 -43 5 -85 62 -25 34
-47 66 -49 71 -2 6 36 8 95 6 88 -4 99 -2 102 14 4 22 -4 24 -120 32 -96 7
-98 7 -98 32 0 22 3 24 23 18 12 -4 60 -18 107 -31z m-122 -1165 c-161 -139
-300 -258 -309 -266 -14 -12 -50 16 -300 233 -156 135 -293 254 -304 265 -19
19 -10 19 593 19 l613 0 -293 -251z m332 -239 l0 -460 -655 0 -655 0 0 30 c0
21 9 36 35 57 19 15 35 33 35 38 0 6 -13 27 -29 46 -28 34 -29 37 -15 58 9 12
26 48 39 79 23 57 23 57 72 62 l48 5 0 120 0 120 -48 3 c-35 2 -50 8 -53 20
-3 9 -15 41 -27 71 l-20 53 31 30 c27 25 30 32 21 50 -6 11 56 -38 137 -109
342 -299 418 -363 428 -363 6 0 155 124 331 275 176 151 321 275 322 275 2 0
3 -207 3 -460z m-3262 420 c17 -16 37 -30 45 -30 20 0 40 27 33 45 -9 24 10
17 42 -15 17 -16 37 -30 45 -30 20 0 40 27 33 45 -9 24 10 17 42 -15 17 -16
37 -30 45 -30 20 0 40 27 33 45 -5 13 20 15 194 15 l200 0 0 -24 c0 -13 7 -26
15 -30 22 -8 62 10 75 34 15 27 30 25 30 -4 0 -13 7 -26 15 -30 22 -8 62 10
77 34 16 25 28 26 28 0 0 -43 65 -43 92 0 14 22 38 27 38 7 0 -7 -5 -18 -12
-25 -9 -9 -9 -15 0 -24 15 -15 16 -119 0 -153 l-11 -25 -556 0 -556 0 3 120
c2 66 7 120 12 120 5 0 22 -13 38 -30z m1689 -252 c32 -34 60 -106 50 -131
-10 -26 -319 -58 -371 -38 -27 11 -28 14 -22 53 4 24 17 61 29 83 l22 40 105
11 c158 17 153 18 187 -18z m-739 -35 c-2 -22 -9 -29 -30 -31 -28 -3 -28 -5
-28 -72 0 -67 0 -69 28 -72 16 -2 27 -9 27 -18 0 -9 -11 -16 -27 -18 -28 -3
-28 -4 -28 -73 l0 -70 78 3 77 3 3 55 3 55 15 -34 c17 -41 18 -107 2 -117 -7
-5 -50 -7 -96 -5 l-83 3 3 -74 3 -73 69 -3 c77 -3 86 2 86 57 0 29 2 32 15 21
10 -9 15 -32 15 -76 l0 -64 -570 0 -570 0 0 315 0 315 506 0 505 0 -3 -27z
m-11 -120 c-3 -10 -5 -2 -5 17 0 19 2 27 5 18 2 -10 2 -26 0 -35z m781 -75
c-66 -120 -222 -142 -318 -45 -22 21 -40 43 -40 48 0 5 42 9 93 10 50 0 128 6
172 13 127 21 120 23 93 -26z m-718 -88 c0 -28 -3 -30 -35 -30 -32 0 -35 2
-35 30 0 28 3 30 35 30 32 0 35 -2 35 -30z m5 -185 c0 -27 -3 -30 -37 -33 -38
-3 -38 -3 -38 33 0 36 1 36 37 33 35 -3 38 -6 38 -33z"/>
<path d="M2535 4148 c-3 -7 -9 -33 -14 -58 -8 -43 -8 -44 -16 -17 -11 40 -36
30 -56 -22 l-16 -45 -19 65 c-28 93 -48 89 -84 -21 -15 -48 -30 -78 -33 -70
-3 8 -13 39 -22 68 -21 65 -49 72 -59 15 -9 -60 -7 -73 12 -73 13 0 24 -16 38
-57 29 -87 47 -82 80 22 15 47 29 84 30 82 2 -2 12 -30 22 -63 21 -68 39 -75
63 -25 l16 35 7 -47 c6 -37 11 -47 27 -47 10 0 19 1 19 3 0 9 22 125 27 141 5
16 7 15 19 -12 12 -30 32 -41 47 -26 11 11 -50 159 -67 162 -9 2 -18 -2 -21
-10z"/>
<path d="M3067 3078 c-79 -107 -95 -170 -45 -176 22 -3 33 5 55 36 54 74 79
130 67 149 -19 31 -50 27 -77 -9z"/>
<path d="M1520 2731 c-15 -29 -3 -49 55 -86 91 -58 115 -68 131 -54 8 6 14 22
14 35 0 19 -16 35 -77 74 -85 54 -107 60 -123 31z"/>
<path d="M3417 2637 c-85 -46 -102 -71 -68 -98 26 -21 33 -19 126 36 71 41 87
64 65 90 -19 23 -38 18 -123 -28z"/>
<path d="M1352 2144 c-24 -17 -29 -53 -10 -72 8 -8 58 -12 159 -12 121 0 150
3 163 16 20 19 20 34 0 62 -14 21 -22 22 -152 22 -108 0 -142 -3 -160 -16z
m221 -41 c-34 -2 -93 -2 -130 0 -37 2 -9 3 62 3 72 0 102 -1 68 -3z"/>
<path d="M3368 2149 c-21 -12 -24 -59 -6 -77 8 -8 58 -12 158 -12 100 0 150 4
158 12 19 19 15 66 -7 78 -25 13 -280 13 -303 -1z m220 -46 c-38 -2 -98 -2
-135 0 -38 2 -7 3 67 3 74 0 105 -1 68 -3z"/>
<path d="M1565 1655 c-92 -51 -111 -78 -76 -106 23 -19 24 -19 115 29 94 49
114 74 86 108 -18 21 -37 16 -125 -31z"/>
<path d="M3302 1628 c-30 -30 -14 -55 71 -107 96 -60 130 -64 135 -16 3 28 -4
34 -81 83 -87 54 -105 60 -125 40z"/>
<path d="M1074 756 c-3 -7 -4 -38 -2 -67 l3 -54 78 -3 77 -3 0 71 0 70 -75 0
c-55 0 -77 -4 -81 -14z m116 -56 c0 -28 -3 -30 -35 -30 -32 0 -35 2 -35 30 0
28 3 30 35 30 32 0 35 -2 35 -30z"/>
<path d="M1254 756 c-3 -7 -4 -38 -2 -67 l3 -54 78 -3 77 -3 0 71 0 70 -75 0
c-55 0 -77 -4 -81 -14z m116 -56 c0 -27 -3 -30 -34 -30 -28 0 -34 4 -38 25 -6
31 -2 35 39 35 30 0 33 -3 33 -30z"/>
<path d="M1432 703 l3 -68 78 -3 77 -3 0 71 0 70 -80 0 -81 0 3 -67z m118 -3
c0 -28 -3 -30 -35 -30 -32 0 -35 2 -35 30 0 28 3 30 35 30 32 0 35 -2 35 -30z"/>
<path d="M1610 700 l0 -71 78 3 77 3 0 65 0 65 -77 3 -78 3 0 -71z m110 0 c0
-28 -3 -30 -35 -30 -32 0 -35 2 -35 30 0 28 3 30 35 30 32 0 35 -2 35 -30z"/>
<path d="M1790 700 l0 -71 78 3 77 3 0 65 0 65 -77 3 -78 3 0 -71z m110 0 c0
-28 -3 -30 -35 -30 -32 0 -35 2 -35 30 0 28 3 30 35 30 32 0 35 -2 35 -30z"/>
<path d="M1080 585 c-6 -7 -10 -39 -8 -72 l3 -58 78 -3 77 -3 0 71 c0 38 -3
71 -7 71 -56 9 -133 6 -143 -6z m110 -65 c0 -28 -3 -30 -35 -30 -32 0 -35 2
-35 30 0 28 3 30 35 30 32 0 35 -2 35 -30z"/>
<path d="M1290 591 l-35 -6 0 -65 0 -65 78 -3 77 -3 0 71 c0 38 -3 70 -7 71
-59 5 -84 5 -113 0z m80 -71 c0 -28 -3 -30 -35 -30 -32 0 -35 2 -35 30 0 28 3
30 35 30 32 0 35 -2 35 -30z"/>
<path d="M1497 592 l-68 -3 3 -67 3 -67 78 -3 77 -3 0 70 c0 46 -4 70 -12 72
-7 2 -44 3 -81 1z m53 -72 c0 -28 -3 -30 -35 -30 -32 0 -35 2 -35 30 0 28 3
30 35 30 32 0 35 -2 35 -30z"/>
<path d="M1678 592 l-68 -3 0 -70 0 -70 78 3 77 3 3 61 c2 41 -1 64 -10 70 -7
5 -43 8 -80 6z m42 -72 c0 -28 -3 -30 -35 -30 -32 0 -35 2 -35 30 0 28 3 30
35 30 32 0 35 -2 35 -30z"/>
<path d="M1803 593 c-9 -3 -13 -28 -13 -74 l0 -70 78 3 77 3 3 63 c2 44 -1 63
-10 66 -22 7 -122 14 -135 9z m97 -73 c0 -28 -3 -30 -35 -30 -32 0 -35 2 -35
30 0 28 3 30 35 30 32 0 35 -2 35 -30z"/>
<path d="M1076 395 c-9 -24 -7 -108 3 -123 5 -9 28 -12 77 -10 l69 3 0 70 0
70 -71 3 c-59 2 -73 0 -78 -13z m114 -60 c0 -33 -2 -35 -35 -35 -33 0 -35 2
-35 35 0 33 2 35 35 35 33 0 35 -2 35 -35z"/>
<path d="M1254 397 c-3 -8 -4 -41 -2 -73 l3 -59 75 0 75 0 0 70 0 70 -73 3
c-55 2 -74 0 -78 -11z m114 -59 c-3 -30 -6 -33 -38 -33 -26 0 -36 5 -38 18 -7
33 6 47 43 47 35 0 36 -1 33 -32z"/>
<path d="M1434 397 c-3 -8 -4 -41 -2 -73 l3 -59 75 0 75 0 0 70 0 70 -73 3
c-55 2 -74 0 -78 -11z m116 -63 c0 -35 -1 -35 -37 -32 -27 2 -39 8 -41 21 -7
33 6 47 43 47 33 0 35 -2 35 -36z"/>
<path d="M1614 397 c-3 -8 -4 -41 -2 -73 l3 -59 75 0 75 0 0 70 0 70 -73 3
c-55 2 -74 0 -78 -11z m111 -62 c0 -28 -3 -30 -35 -30 -32 0 -35 3 -38 33 -3
33 -3 33 35 30 35 -3 38 -5 38 -33z"/>
<path d="M1794 397 c-3 -8 -4 -41 -2 -73 l3 -59 75 0 75 0 0 70 0 70 -73 3
c-55 2 -74 0 -78 -11z m111 -62 c0 -27 -3 -30 -37 -33 -38 -3 -38 -3 -38 33 0
36 0 36 38 33 34 -3 37 -6 37 -33z"/>
</g>
</svg>
